# xmcd CD database file
#
# Track frame offsets:
#	150
#	21937
#	40652
#	61990
#	78385
#	94890
#	111769
#	124748
#	140237
#	157479
#	172821
#	190506
#	212164
#	233858
#	251685
#	272081
#	286826
#	305080
#
# Disc length: 4313 seconds
#
# Revision: 0
# Processed by: cddbd v1.5.2PL0 Copyright (c) Steve Scherf et al.
# Submitted via: CDex 1.70beta2
#
DISCID=0610d712
DTITLE=Various Artist - Gympie Muster 2009 Country - CD 1
DYEAR=2009
DGENRE=Country
TTITLE0=Beccy Cole - Lifeboat 
TTITLE1=Graeme Connors - A Beach House In The Blue Mountains 
TTITLE2=Carter and Carter - Open Road 
TTITLE3=Jetty Road - Good Times 
TTITLE4=The Bushwackers - The Good Old Days 
TTITLE5=Tracy Killeen - Good Friend and Good Times 
TTITLE6=The Heartleys - Facing the World 
TTITLE7=The Noll Brothers - Southern Country 
TTITLE8=Craig Morrison - Little Cowboys 
TTITLE9=Ronni Rae Rivers - Notice Me 1
TTITLE10=McAlister Kemp - Blue Collar Night 1
TTITLE11=The Wildes - Ballad Of A Young Married 1
TTITLE12=Dave Walker and The Blue Moon Lodge - Brophy’s Tent 1
TTITLE13=Norma O’Hara Murphy - Fresh Horses 1
TTITLE14=Ted Egan - Don’t Ever Ring A Bell 1
TTITLE15=Sharon Smith - The Camooweal Drovers Reunion 1
TTITLE16=Benn Gunn - Halcyon Day 1
TTITLE17=Hank Vann - Amsterdam Days
EXTD=YEAR: 2009
EXTT0=
EXTT1=
EXTT2=
EXTT3=
EXTT4=
EXTT5=
EXTT6=
EXTT7=
EXTT8=
EXTT9=
EXTT10=
EXTT11=
EXTT12=
EXTT13=
EXTT14=
EXTT15=
EXTT16=
EXTT17=
PLAYORDER=
